<?xml version="1.0" encoding="UTF-8" standalone="no"?>
<!-- Created with Inkscape (http://www.inkscape.org/) -->

<svg
   width="722.8457"
   height="701.96637"
   id="svg2"
   version="1.1"
   inkscape:version="1.3 (0e150ed, 2023-07-21)"
   sodipodi:docname="slurm-on-k8s.svg"
   inkscape:export-filename="/home/thockin/src/kubernetes/new.png"
   inkscape:export-xdpi="460.95001"
   inkscape:export-ydpi="460.95001"
   xml:space="preserve"
   xmlns:inkscape="http://www.inkscape.org/namespaces/inkscape"
   xmlns:sodipodi="http://sodipodi.sourceforge.net/DTD/sodipodi-0.dtd"
   xmlns="http://www.w3.org/2000/svg"
   xmlns:svg="http://www.w3.org/2000/svg"
   xmlns:rdf="http://www.w3.org/1999/02/22-rdf-syntax-ns#"
   xmlns:cc="http://creativecommons.org/ns#"
   xmlns:dc="http://purl.org/dc/elements/1.1/"><defs
     id="defs4" /><sodipodi:namedview
     id="base"
     pagecolor="#ffffff"
     bordercolor="#666666"
     borderopacity="1.0"
     inkscape:pageopacity="0.0"
     inkscape:pageshadow="2"
     inkscape:zoom="0.86756293"
     inkscape:cx="250.12595"
     inkscape:cy="349.2542"
     inkscape:document-units="px"
     inkscape:current-layer="layer1"
     showgrid="false"
     inkscape:window-width="1920"
     inkscape:window-height="1027"
     inkscape:window-x="0"
     inkscape:window-y="25"
     inkscape:window-maximized="0"
     inkscape:snap-global="false"
     fit-margin-top="10"
     fit-margin-left="10"
     fit-margin-right="10"
     fit-margin-bottom="10"
     inkscape:showpageshadow="2"
     inkscape:pagecheckerboard="0"
     inkscape:deskcolor="#d1d1d1" /><metadata
     id="metadata7"><rdf:RDF><cc:Work
         rdf:about=""><dc:format>image/svg+xml</dc:format><dc:type
           rdf:resource="http://purl.org/dc/dcmitype/StillImage" /></cc:Work></rdf:RDF></metadata><g
     inkscape:label="Layer 1"
     inkscape:groupmode="layer"
     id="layer1"
     transform="translate(-6.3260942,-174.7524)"><g
       id="g1"
       transform="matrix(0.44301154,0,0,0.44301154,201.94729,347.3081)"><path
         style="fill:#326ce5;fill-opacity:1;stroke:#ffffff;stroke-width:0;stroke-miterlimit:4;stroke-dasharray:none;stroke-opacity:1"
         d="m 365.3125,184.8125 a 46.724621,46.342246 0 0 0 -17.90625,4.53125 l -244.34375,116.75 a 46.724621,46.342246 0 0 0 -25.28125,31.4375 L 17.5,599.78125 A 46.724621,46.342246 0 0 0 23.84375,635.3125 46.724621,46.342246 0 0 0 26.5,639 l 169.125,210.28125 a 46.724621,46.342246 0 0 0 36.53125,17.4375 L 503.375,866.65625 A 46.724621,46.342246 0 0 0 539.90625,849.25 L 708.96875,638.9375 A 46.724621,46.342246 0 0 0 718,599.71875 l -60.375,-262.25 a 46.724621,46.342246 0 0 0 -25.28125,-31.4375 l -244.375,-116.6875 A 46.724621,46.342246 0 0 0 365.3125,184.8125 Z"
         id="path3055"
         inkscape:connector-curvature="0"
         inkscape:export-filename="new.png"
         inkscape:export-xdpi="250.55"
         inkscape:export-ydpi="250.55" /><path
         id="path3059"
         style="color:#000000;font-style:normal;font-variant:normal;font-weight:normal;font-stretch:normal;font-size:medium;line-height:normal;font-family:Sans;-inkscape-font-specification:Sans;text-indent:0;text-align:start;text-decoration:none;text-decoration-line:none;letter-spacing:normal;word-spacing:normal;text-transform:none;writing-mode:lr-tb;direction:ltr;baseline-shift:baseline;text-anchor:start;display:inline;overflow:visible;visibility:visible;fill:#ffffff;fill-opacity:1;stroke:#ffffff;stroke-width:0.25;stroke-miterlimit:4;stroke-dasharray:none;stroke-opacity:1;marker:none;enable-background:accumulate"
         d="m 366.92773,272.08008 c -5.41908,0.24542 -10.40234,3.60272 -13.10642,8.23517 -2.0109,3.33723 -2.87865,7.28794 -2.6953,11.16198 -0.23575,4.64766 0.57262,9.25335 1.4443,13.79816 0.57963,3.01565 0.88924,6.18718 1.25263,9.25794 0.25846,2.27193 0.49527,4.48366 0.68739,6.70898 0.19618,2.34794 0.34648,4.55132 0.39494,6.92271 0.0217,2.24878 0.07,4.52287 -0.23339,6.751 -0.76849,2.67212 -2.70176,4.7824 -4.64258,6.68359 -0.0946,1.73968 -0.19289,3.47916 -0.28907,5.21875 -30.83352,2.77984 -60.96073,13.17253 -86.88179,30.1131 -12.17376,7.93348 -23.42559,17.27587 -33.48735,27.75799 -1.51025,-1.0621 -3.00257,-2.14919 -4.50195,-3.22656 -2.44898,0.31704 -5.08836,1.09639 -7.43486,-0.0878 -1.89801,-1.00526 -3.542,-2.4317 -5.2331,-3.74557 -1.09907,-0.90824 -2.15691,-1.80774 -3.1572,-2.71055 -4.24505,-3.84701 -8.27078,-7.93087 -12.24788,-12.05126 -3.45583,-3.82055 -6.6746,-7.92503 -10.81954,-11.04543 -2.29745,-1.89847 -4.77613,-3.66523 -7.646,-4.57855 -5.42369,-1.90273 -11.8744,-1.12328 -16.36011,2.59199 -4.02684,3.21478 -6.12155,8.53908 -5.59687,13.63877 0.46398,5.42223 3.55671,10.42562 7.91482,13.61272 3.14212,2.73937 6.72182,4.9104 10.41366,6.82221 4.72209,2.4305 9.14953,5.37532 13.63192,8.21168 4.30533,2.83631 8.58427,5.78434 12.31147,9.36308 1.74432,2.24414 1.92114,5.20311 2.37799,7.90255 1.31136,1.17242 2.62375,2.34369 3.93554,3.51562 -16.89646,25.88467 -27.4491,55.89145 -30.324,86.67664 -1.37129,14.46361 -1.07042,29.08524 0.8826,43.48157 -1.69853,0.49429 -3.3975,0.98704 -5.0957,1.48242 -1.7238,2.11851 -3.18763,4.58585 -5.54204,6.0755 -2.98168,1.05062 -6.11238,1.6622 -9.22148,2.22765 -5.82541,0.9821 -11.70739,1.59577 -17.58547,2.15609 -5.20534,0.32226 -10.49402,0.2337 -15.57393,1.58582 -3.01362,0.64461 -6.02087,1.57462 -8.57513,3.35338 -4.71682,3.13595 -7.98163,8.62762 -7.79582,14.36822 0.0786,5.14339 3.00569,10.04149 7.33949,12.75729 4.52452,2.94308 10.31624,3.58779 15.47473,2.17493 4.34604,-0.78206 8.47884,-2.38989 12.50346,-4.16492 4.65433,-2.03566 9.49814,-3.58977 14.29193,-5.25646 2.50922,-0.83237 5.03614,-1.61371 7.59246,-2.28922 0.80276,-0.2041 2.12392,-0.53173 2.88867,-0.69922 1.67652,-0.29793 3.35151,-0.81588 5.06445,-0.76367 2.57885,0.31023 4.77231,1.81956 6.98633,3.05469 1.79451,-0.31098 3.58989,-0.61691 5.38477,-0.92578 8.77647,26.49643 23.47762,50.99505 42.68392,71.24397 11.95663,12.63144 25.62635,23.63595 40.51139,32.63298 -0.7658,1.83586 -1.52968,3.67253 -2.29688,5.50781 0.86077,2.38234 1.9481,4.87465 1.59766,7.46289 -1.63975,4.45926 -3.97065,8.6342 -6.34766,12.73828 -2.0765,3.50654 -4.34121,7.09495 -6.56945,10.58308 -3.08804,4.59631 -6.75279,8.8635 -9.00552,13.97178 -1.32393,2.6597 -2.50201,5.45595 -2.75408,8.44869 -0.65886,5.78551 1.60046,11.9952 6.33673,15.52398 4.08928,3.15719 9.77567,3.9195 14.61522,2.19382 4.63006,-1.57477 8.48331,-5.11904 10.66421,-9.47135 0.55704,-0.37255 0.36916,-1.0854 0.79531,-1.58904 2.23362,-4.16358 3.47416,-8.74565 4.68559,-13.28442 0.79191,-3.15094 2.16534,-6.10762 3.1537,-9.19633 2.03831,-5.77443 3.72347,-11.77386 6.98263,-17.01586 0.96347,-1.4539 1.97245,-3.06551 3.70504,-3.67411 1.3121,-0.55269 2.70291,-0.87427 4.07031,-1.25586 0.96031,-1.74124 1.92194,-3.48174 2.88281,-5.22266 26.02901,9.74371 54.19339,13.7602 81.90552,11.55536 17.48306,-1.37306 34.77695,-5.15832 51.2312,-11.22723 0.89352,1.61155 1.79083,3.21915 2.6875,4.83007 2.3236,0.76795 5.00363,1.20335 6.61054,3.24538 1.241,1.63636 2.06052,3.55274 2.98308,5.37939 3.01296,6.44727 5.23268,13.2247 7.51646,19.95329 1.52674,5.09038 2.64751,10.35736 5.12174,15.10534 1.24669,2.70391 2.7326,5.35579 4.92637,7.4132 4.13094,4.07623 10.38316,6.14062 16.06895,4.60808 4.9679,-1.23543 9.05636,-5.1684 10.73708,-9.97095 1.83755,-5.00141 1.22399,-10.70478 -1.22957,-15.38878 -1.59518,-3.60359 -3.66553,-6.97394 -6.02311,-10.12655 -2.18291,-2.8878 -4.19089,-5.89876 -6.09009,-8.9794 -3.77427,-6.02177 -7.60036,-12.0962 -10.13413,-18.76563 -0.70327,-2.06121 -0.0767,-4.23851 0.7744,-6.14915 0.20506,-0.67117 0.66125,-1.37499 0.70668,-2.02609 -1.12926,-1.34028 -1.50679,-3.09906 -2.16957,-4.68289 26.83539,-16.13903 49.52841,-39.04199 65.54981,-65.93715 7.2954,-12.20217 13.22665,-25.21825 17.66113,-38.72496 1.77984,0.29761 3.55284,0.63373 5.32812,0.95703 2.07126,-1.35674 4.11187,-3.22345 6.74917,-3.17334 1.69213,0.0321 3.34605,0.48583 5.00279,0.79834 0.38644,0.0899 1.16806,0.26602 1.70297,0.4016 1.28747,0.31706 2.50281,0.64563 3.82886,1.03472 2.80805,0.8147 5.57657,1.75657 8.34121,2.70626 2.11629,0.74659 4.41306,1.55999 6.5939,2.34445 5.28124,2.01714 10.34824,4.75882 15.96785,5.75553 2.55519,0.60768 5.18506,1.0879 7.82525,0.82312 5.85119,-0.42268 11.58474,-3.79936 14.21787,-9.13571 2.31763,-4.51276 2.09186,-10.13184 -0.39319,-14.52872 -2.64416,-4.86127 -7.61869,-8.20951 -12.99476,-9.30561 -3.53564,-0.9673 -7.17859,-1.4871 -10.83961,-1.63178 -3.60169,-0.12951 -7.20367,-0.30045 -10.78139,-0.75609 -7.38449,-0.83039 -14.8517,-1.59326 -21.96861,-3.83614 -2.6111,-1.23443 -4.06487,-3.88741 -5.67613,-6.14507 -1.64787,-0.4789 -3.29557,-0.95836 -4.94336,-1.4375 3.75772,-28.85428 0.70523,-58.53695 -8.65044,-86.0791 -5.22605,-15.42508 -12.43996,-30.17515 -21.40425,-43.77246 1.49886,-1.34762 3.00071,-2.69192 4.5,-4.03906 0.23033,-2.44983 0.0584,-5.18611 1.72325,-7.20511 1.43624,-1.66534 3.23479,-2.98018 4.93105,-4.36911 5.53172,-4.24955 11.50583,-7.87601 17.4471,-11.51382 4.6382,-2.62113 9.56767,-4.84718 13.63341,-8.35899 2.35172,-1.81883 4.58505,-3.87244 6.08985,-6.46972 2.99471,-4.89442 3.6173,-11.35653 0.92862,-16.51989 -2.31012,-4.64305 -7.12534,-7.80884 -12.25247,-8.35245 -5.25843,-0.65151 -10.64139,1.21962 -14.6405,4.63184 -3.43911,2.53608 -6.43891,5.6015 -9.20746,8.843 -3.1905,3.76149 -6.80084,7.22296 -10.31048,10.72411 -3.89569,3.79755 -7.90682,7.54226 -12.45777,10.54675 -2.57708,1.20371 -5.50455,0.6931 -8.23812,0.54534 -1.58145,1.12815 -3.16275,2.25653 -4.74414,3.38477 -22.54729,-23.25594 -51.01207,-40.71731 -81.97198,-50.24687 -12.29352,-3.79719 -24.97188,-6.35577 -37.77802,-7.60665 -0.11373,-1.87009 -0.19219,-3.74201 -0.2832,-5.61328 -1.77747,-1.72171 -4.0543,-3.29026 -4.59475,-5.87099 -0.38733,-2.05577 -0.30401,-4.17459 -0.3301,-6.26064 0.041,-3.65849 0.34021,-7.35725 0.71227,-10.88221 0.49257,-4.33686 0.88982,-8.76705 1.6657,-13.01741 0.87137,-4.54016 1.67602,-9.13989 1.45071,-13.7827 0.0862,-3.57697 -0.56089,-7.21672 -2.28553,-10.38079 -2.5664,-4.95083 -7.65426,-8.67361 -13.29431,-9.01186 -0.62194,-0.0502 -1.24772,-0.0417 -1.87087,-0.02 z m -23.77929,190.86523 c -0.60143,0.21876 -0.23914,1.07957 -0.39938,1.59227 -0.22851,4.67928 -3.8401,8.91877 -8.41893,9.90025 -3.24952,0.77741 -6.78071,-0.0934 -9.37799,-2.17299 -0.49899,-0.34249 -1.01066,-0.46829 -1.49992,-0.91467 -19.6885,-13.95722 -39.377,-27.91444 -59.0655,-41.87165 1.22204,-1.16015 2.60675,-2.41918 3.77148,-3.47071 15.87291,-14.11447 34.81828,-24.73494 55.1298,-30.94183 7.83965,-2.40594 15.87324,-4.18238 24.00106,-5.27692 -1.38021,24.38542 -2.76041,48.77084 -4.14062,73.15625 z m 45.76758,-73.05273 c 1.6258,0.2409 3.5177,0.53793 5.14504,0.83955 3.89473,0.70164 7.57662,1.51803 11.40943,2.51966 7.89021,2.07286 15.60745,4.79855 23.05685,8.12321 2.18251,0.9769 4.65067,2.15811 6.8418,3.27148 12.84721,6.54355 24.74806,14.9427 35.20703,24.86719 -19.87174,14.08919 -39.74349,28.17839 -59.61523,42.26758 -0.52014,-0.15061 -0.95522,0.56087 -1.44079,0.7659 -3.83078,2.71049 -9.40329,2.46904 -13.00296,-0.53275 -2.57735,-2.06121 -4.08185,-5.31804 -4.07225,-8.60944 -0.26737,-2.45606 -0.31589,-5.05441 -0.48964,-7.57147 -1.24812,-22.01286 -2.49624,-44.02571 -3.74436,-66.03857 0.23502,0.0326 0.47005,0.0651 0.70508,0.0977 z m -95.21094,120.58398 c -0.17174,0.58517 0.70389,0.82873 0.99502,1.26278 3.50407,3.0836 4.57707,8.52699 2.50742,12.71008 -1.41344,3.05264 -4.3247,5.27533 -7.5856,6.01965 -0.59306,0.15127 -0.83462,0.63573 -1.54169,0.67345 -23.08404,6.66213 -46.16807,13.32426 -69.25211,19.98639 -0.27396,-2.883 -0.45332,-5.76874 -0.5625,-8.69532 -0.0769,-2.37227 -0.11421,-4.93028 -0.0739,-7.3753 0.0807,-5.79865 0.50634,-11.6223 1.27901,-17.44696 0.50042,-3.76645 1.17315,-7.68249 1.98443,-11.46227 0.78216,-3.67648 1.75994,-7.52143 2.83457,-11.1317 1.26957,-4.29786 2.7409,-8.53542 4.39389,-12.70095 1.42181,-3.57238 3.10174,-7.37119 4.86626,-10.93772 1.66829,-3.36539 3.4541,-6.67304 5.37007,-9.90408 18.26172,16.33398 36.52344,32.66797 54.78516,49.00195 z m 202.75,-48.45312 c 4.39502,7.44931 8.13393,15.28371 11.18359,23.37695 1.35245,3.61352 2.66814,7.54555 3.73536,11.26908 0.76347,2.63406 1.43775,5.23773 2.03877,7.82451 1.01598,4.39457 1.83336,8.72974 2.46851,13.23118 0.80391,5.67106 1.29372,11.57286 1.43217,17.30052 0.13315,5.3207 -0.0182,10.54155 -0.44825,15.84737 -23.50065,-6.76888 -47.0013,-13.53776 -70.50195,-20.30664 -0.063,-0.60349 -0.96701,-0.43863 -1.40459,-0.69961 -4.43914,-1.20468 -7.76146,-5.50293 -7.8551,-10.09454 -0.14417,-3.41961 1.45869,-6.80907 4.12415,-8.94024 0.48239,-0.38772 0.6314,-0.88294 1.18733,-1.24306 17.90982,-16.029 35.81964,-32.058 53.72946,-48.08701 0.10352,0.17383 0.20703,0.34766 0.31055,0.52149 z m -117.9336,53.6914 c 4.47396,5.5918 8.94792,11.1836 13.42188,16.77539 -1.60612,6.97722 -3.21224,13.95443 -4.81836,20.93165 -6.46354,3.10807 -12.92708,6.21614 -19.39062,9.32421 -6.48438,-3.11849 -12.96876,-6.23698 -19.45313,-9.35547 -1.60612,-6.97721 -3.21224,-13.95442 -4.81836,-20.93164 4.48242,-5.58138 8.96484,-11.16276 13.44727,-16.74414 7.20377,0 14.40755,0 21.61132,0 z m 54.21485,62.58204 c 0.82552,0.0739 1.6393,0.23704 2.45898,0.35546 0.4688,-0.28949 1.21246,0.14011 1.79145,0.13888 23.64959,3.99863 47.29919,7.99726 70.94879,11.99589 -3.30149,8.82558 -7.44378,17.3358 -12.34961,25.38086 -0.99172,1.62312 -2.12257,3.39823 -3.22035,5.04739 -7.39529,11.10188 -16.29132,21.20179 -26.37145,29.93894 -4.33243,3.74667 -9.02463,7.36868 -13.82937,10.62058 -0.51968,0.3522 -1.03899,0.70492 -1.56516,1.04739 -9.40234,-22.71094 -18.80469,-45.42188 -28.20703,-68.13282 0.1079,-0.50399 -0.39299,-1.08943 -0.52309,-1.62576 -1.72698,-4.32914 -0.24019,-9.65577 3.47141,-12.47228 2.07999,-1.61353 4.75869,-2.49802 7.39543,-2.29453 z m -129.21875,0.29492 c 4.58183,0.0335 8.90327,3.29048 10.18094,7.69348 0.87763,2.718 0.51571,5.71179 -0.71226,8.26264 -0.0545,0.53297 0.0564,1.03948 -0.34042,1.61694 -9.15408,22.12343 -18.30817,44.24687 -27.46225,66.3703 -4.44514,-2.95323 -8.73435,-6.14302 -12.80439,-9.52053 -6.90377,-5.72197 -13.29253,-12.06496 -19.06475,-18.92674 -1.3955,-1.66561 -2.91972,-3.55102 -4.22997,-5.2728 -8.80549,-11.47818 -15.91248,-24.25365 -21.04151,-37.77993 23.98633,-4.07032 47.97266,-8.14063 71.95898,-12.21094 0.46037,0.29186 1.19131,-0.12344 1.76137,-0.11762 0.58022,-0.0895 1.16766,-0.11854 1.75426,-0.1148 z m 65.125,31 c 3.78551,0.32383 7.29075,2.73699 8.93578,6.16472 0.23664,0.64609 0.84807,0.65048 1.03715,1.37272 11.67959,21.10275 23.35919,42.20551 35.03879,63.30826 -7.49342,2.37568 -15.17299,4.15681 -22.93946,5.36719 -0.75669,0.11132 -1.81684,0.2661 -2.69098,0.38964 -14.5066,1.97392 -29.30167,1.8081 -43.75824,-0.50683 -0.83586,-0.14979 -1.95145,-0.32199 -2.89712,-0.49912 -6.5248,-1.17961 -12.9699,-2.79695 -19.28061,-4.83096 11.79622,-21.32812 23.59245,-42.65625 35.38867,-63.98437 0.82122,-1.31373 1.57495,-2.79222 2.78413,-3.84954 2.21571,-2.10582 5.33712,-3.19331 8.38189,-2.93171 z" /></g><path
       d="m 231.38435,743.7058 v 40.51638 h 3.27878 v -13.89577 c 1.95165,1.40829 9.86445,7.06343 14.59838,10.38278 3.57543,2.33266 3.46614,3.21324 3.51298,3.51299 h 4.37171 c 0,-2.1047 -2.38571,-3.15388 -5.07431,-4.9962 -1.63314,-1.1273 -13.73965,-9.60216 -13.73965,-9.60216 0,0 11.788,-7.77852 13.42739,-8.89957 2.68236,-1.84545 4.84011,-2.88846 4.84011,-4.9962 h -4.21558 c -0.0375,0.29037 0.14689,1.1772 -3.43492,3.51291 -4.47787,3.157 -11.86606,8.42183 -14.28611,10.14864 v -25.6838 z m 30.75809,0 v 40.51638 h 3.27878 V 743.7058 Z m 97.89503,0 v 34.03689 0.0782 0.39032 c 0.002,0.50582 -0.0842,1.42393 -0.39033,2.0297 -0.36535,0.60271 -0.50898,0.88995 -1.48325,0.9368 h -16.08164 c -0.96802,-0.0469 -1.11479,-0.33409 -1.48326,-0.9368 -0.22808,-0.4528 -0.35286,-1.05231 -0.39033,-1.56134 v -16.62805 -0.0782 -0.31227 c -0.01,-0.52146 0.0812,-1.50198 0.39033,-2.10783 0.36847,-0.60576 0.50587,-0.87118 1.48326,-0.93672 h 16.08164 v -3.27885 h -16.08164 c -2.21708,-0.056 -3.86896,1.41768 -4.44977,2.81041 -0.6464,1.38022 -0.69323,2.72923 -0.7026,3.51299 v 0.54649 15.37898 0.62453 0.54649 0.54649 h 0.078 c 0.0749,0.69632 0.23108,1.57377 0.62453,2.42001 0.58082,1.38335 2.2327,2.78851 4.44978,2.73236 h 16.08164 0.15613 c 2.14526,0 3.71283,-1.37709 4.29364,-2.73236 0.64014,-1.38334 0.69948,-2.73853 0.7026,-3.51299 v -0.62453 -33.88072 h -3.27882 z m -147.07675,11.78803 c -1.80409,0.25982 -3.07738,1.5191 -3.59105,2.73228 -0.64639,1.38021 -0.68698,2.73236 -0.7026,3.51298 v 0.62454 21.85855 h 3.27879 v -22.01464 -0.0782 -0.39032 c -0.005,-0.52459 0.0842,-1.50511 0.39033,-2.10782 0.36223,-0.60577 0.43405,-0.7994 1.40519,-0.85868 h 12.17833 v -3.27885 h -12.17833 c -0.27714,-0.008 -0.52293,-0.037 -0.78066,0 z m 178.14711,0 c -2.21083,-0.056 -3.85334,1.42393 -4.44977,2.81041 -0.64327,1.38326 -0.69323,2.7354 -0.7026,3.5129 v 0.54649 21.9366 h 3.35685 v -22.09269 l -0.078,-0.0782 v -0.31227 c 0,-0.51833 0.0842,-1.49572 0.39033,-2.10783 0.35598,-0.60576 0.51524,-0.80557 1.48326,-0.85867 h 12.64673 v 25.44958 h 3.27878 v -25.44958 h 12.80287 c 0.97114,0.0527 1.04296,0.24978 1.40518,0.85867 0.3029,0.61211 0.3997,1.5895 0.39033,2.10783 v 0.31227 0.0782 22.09269 h 3.27878 v -21.9366 -0.54649 c -0.01,-0.7775 -0.056,-2.13277 -0.70259,-3.5129 -0.58081,-1.38648 -2.1515,-2.86664 -4.3717,-2.81041 H 391.1079 Z m 78.69075,0 c -2.2202,-0.0535 -3.85959,1.42706 -4.44977,2.81041 -0.64327,1.38326 -0.69635,2.7354 -0.7026,3.5129 v 0.54649 21.9366 h 3.35685 v -22.09269 l -0.078,-0.0782 v -0.31227 c -0.02,-0.51833 0.0937,-1.49572 0.39033,-2.10783 0.36536,-0.60263 0.50275,-0.88057 1.48326,-0.93672 l 15.53518,0.0782 c 0.98051,0.0535 1.12728,0.24987 1.48326,0.85876 0.30602,0.61202 0.40282,1.58941 0.39033,2.10774 v 0.31227 0.0782 22.09277 h 3.27878 v -21.93659 -0.54649 c -0.01,-0.77758 -0.0562,-2.13277 -0.70259,-3.51299 -0.57769,-1.38335 -2.23894,-2.86351 -4.44978,-2.81041 h -15.53515 z m 129.12153,0 c -1.80099,0.25768 -3.08558,1.51639 -3.59105,2.73228 -0.65575,1.38021 -0.69323,2.72923 -0.70259,3.51298 v 0.62454 21.85855 h 3.27878 v -22.01464 -0.0782 -0.39032 c -0.015,-0.52772 0.0747,-1.50511 0.39033,-2.10782 0.34349,-0.6089 0.50899,-0.80253 1.48326,-0.85868 h 12.17833 v -3.27885 h -12.17833 c -0.27635,-0.008 -0.60145,-0.037 -0.85873,0 z m -467.77279,0.23406 v 21.85855 c -0.01,0.0999 0,0.34034 0,0.62453 0.005,0.77437 0.0502,2.12964 0.70259,3.51299 0.57457,1.35519 2.14839,2.73228 4.29365,2.73228 h 0.15613 28.6503 c 2.22021,0.056 3.86272,-1.34894 4.44978,-2.73228 0.64326,-1.38335 0.69635,-2.73862 0.70259,-3.51299 v -0.62453 -21.85855 h -3.27878 v 22.01464 0.0782 0.39031 c 0.01,0.5059 -0.0904,1.42394 -0.39033,2.02978 -0.36535,0.60577 -0.50587,0.88996 -1.48326,0.93681 h -12.56866 v -25.44959 h -3.27878 v 25.44959 h -12.80286 c -0.97427,-0.0469 -1.11479,-0.33104 -1.48326,-0.93681 -0.30602,-0.60584 -0.3997,-1.52388 -0.39033,-2.02978 v -0.39031 -0.0782 -22.01464 z m 49.02558,0 c -1.80196,0.25035 -3.0801,1.51095 -3.59104,2.73236 -0.65263,1.38013 -0.69948,2.7354 -0.7026,3.5129 v 0.54649 15.0668 0.62453 c 0.002,0.77437 0.0502,2.12964 0.7026,3.51299 0.56832,1.35519 2.14526,2.73228 4.29364,2.73228 h 0.15613 16.23777 c 2.21709,0.056 3.86273,-1.34894 4.44978,-2.73228 0.64951,-1.38335 0.69635,-2.73862 0.7026,-3.51299 l -0.078,-0.54649 v -15.14484 l 0.078,-0.54649 c -0.005,-0.7775 -0.0532,-2.13277 -0.7026,-3.5129 -0.58705,-1.39586 -2.23269,-2.79485 -4.44978,-2.73236 h -16.23777 c -0.27674,-0.008 -0.6013,-0.0354 -0.85873,0 z m 95.55306,0 c -1.80317,0.25035 -3.0801,1.51095 -3.59105,2.73236 -0.6495,1.38013 -0.76817,2.7354 -0.78066,3.5129 l 0.078,0.54649 v 15.0668 l -0.078,0.62453 c 0.0125,0.77437 0.13116,2.12964 0.78066,3.51299 0.57769,1.35519 2.13902,2.73228 4.29365,2.73228 h 0.078 16.31584 c 2.20147,0.056 3.78465,-1.34894 4.37171,-2.73228 0.64639,-1.38335 0.69322,-2.73862 0.70259,-3.51299 v -0.54649 -15.14484 -0.54649 c -0.01,-0.7775 -0.0562,-2.13277 -0.70259,-3.5129 -0.58706,-1.39586 -2.17024,-2.79485 -4.37171,-2.73236 h -16.31584 c -0.27674,-0.008 -0.52306,-0.0354 -0.78066,0 z m 28.4161,0 v 3.27876 h 21.85854 c 0.97427,0.0535 1.12416,0.25299 1.48326,0.85876 0.3029,0.60576 0.40595,1.59879 0.39033,2.10774 v 0.3904 0.0782 15.30102 0.0782 0.39031 c 0.01,0.50582 -0.0874,1.42393 -0.39033,2.0297 -0.3591,0.60576 -0.50899,0.88683 -1.48326,0.9368 h -17.48683 c -1.10854,-0.0469 -1.18973,-0.30914 -1.48326,-0.70258 -0.25293,-0.41847 -0.39033,-1.17415 -0.39033,-1.56134 v -0.23405 -0.0782 -6.01112 -0.0782 -0.3904 c 0,-0.50895 0.0812,-1.49885 0.39033,-2.10774 0.35599,-0.60577 0.50587,-0.80253 1.48326,-0.85876 h 17.48683 v -3.27876 h -17.48683 c -2.2202,-0.056 -3.85334,1.34901 -4.44977,2.73236 -0.64639,1.38639 -0.69635,2.73227 -0.7026,3.5129 v 0.62454 5.69885 0.46845 c 0.005,0.69319 0.0844,1.94226 0.78066,3.20063 0.662,1.27723 2.28578,2.39515 4.37171,2.34205 h 17.48683 0.15614 c 2.15462,0 3.72219,-1.38022 4.29364,-2.73236 0.64639,-1.38647 0.69635,-2.73853 0.70259,-3.51299 v -0.62453 -15.06672 -0.54648 c -0.005,-0.77759 -0.0562,-2.13278 -0.70259,-3.51299 -0.58706,-1.39273 -2.23582,-2.79164 -4.44978,-2.73228 h -21.85854 z m 127.40407,0 v 3.27876 h 21.93661 c 0.96178,0.0535 1.04296,0.25299 1.40519,0.85876 0.30602,0.60576 0.39033,1.60192 0.39033,2.10774 v 0.3904 0.0782 15.30102 0.0782 0.39031 c 0,0.50582 -0.0842,1.42393 -0.39033,2.0297 -0.36223,0.60576 -0.44341,0.88683 -1.40519,0.9368 h -17.5649 c -0.97739,-0.0502 -1.1179,-0.33104 -1.48325,-0.9368 -0.29978,-0.60889 -0.39033,-1.52388 -0.39033,-2.0297 v -0.39031 -0.0782 -5.15237 -0.0782 -0.0782 -0.31226 c -0.01,-0.50895 0.0904,-1.49885 0.39033,-2.10775 0.36535,-0.60576 0.50586,-0.80252 1.48325,-0.85875 h 17.5649 v -3.27877 h -17.5649 c -2.21083,-0.056 -3.86272,1.34902 -4.44977,2.73236 -0.63702,1.38639 -0.7026,2.73228 -0.7026,3.51291 v 0.62453 4.8401 0.62454 c 0.005,0.77445 0.0654,2.12651 0.7026,3.51299 0.58705,1.38021 2.23894,2.7885 4.44977,2.73236 h 17.5649 0.078 c 2.14526,0 3.7222,-1.38022 4.29364,-2.73236 0.64639,-1.38648 0.69635,-2.73854 0.7026,-3.51299 v -0.54641 -15.14484 -0.54649 c -0.005,-0.78063 -0.0562,-2.12964 -0.7026,-3.51299 -0.57769,-1.39273 -2.16087,-2.79163 -4.37171,-2.73227 h -21.9366 z m 65.80983,0 v 3.27876 h 21.85854 c 0.96802,0.0535 1.12103,0.25299 1.48326,0.85876 0.30602,0.60576 0.3997,1.60192 0.39033,2.10774 v 0.3904 0.0782 15.30102 0.0782 0.39031 c 0.01,0.50582 -0.0842,1.42393 -0.39033,2.0297 -0.36223,0.60576 -0.51524,0.88683 -1.48326,0.9368 h -17.5649 c -1.09917,-0.0469 -1.20222,-0.30914 -1.48326,-0.70258 -0.25918,-0.41847 -0.31227,-1.17415 -0.31227,-1.56134 v -0.23405 -0.0782 -6.01112 -0.0782 -0.0782 -0.31227 c 0,-0.50903 0.072,-1.49885 0.39034,-2.10783 0.35286,-0.60576 0.4278,-0.80252 1.40519,-0.85867 h 17.5649 v -3.27877 h -17.5649 c -2.2202,-0.056 -3.78465,1.34894 -4.37171,2.73228 -0.64639,1.38648 -0.69635,2.73236 -0.70259,3.51299 v 0.62453 5.69886 0.46836 c 0,0.6932 0.0842,1.93914 0.78066,3.20072 0.65887,1.27089 2.28578,2.39507 4.37171,2.34197 h 17.48683 0.15613 c 2.1359,0 3.7222,-1.38022 4.29365,-2.73228 0.64326,-1.38647 0.69634,-2.73862 0.70259,-3.51299 v -0.54649 -15.14484 -0.54649 c -0.007,-0.78063 -0.0594,-2.12964 -0.70259,-3.5129 -0.59018,-1.39273 -2.23894,-2.79172 -4.44978,-2.73236 z m 35.75432,0 c -1.80401,0.25653 -3.08282,1.51375 -3.59104,2.73236 -0.39658,0.84928 -0.55271,1.64555 -0.62453,2.34196 h -0.078 v 0.62453 0.54641 0.54649 13.27124 0.54649 c 0.0125,0.78062 0.0592,2.05472 0.7026,3.43494 0.57456,1.36144 2.14838,2.81032 4.29364,2.81032 h 0.15613 16.94037 v -3.27876 h -16.94037 c -0.96802,-0.0535 -1.1179,-0.33096 -1.48325,-0.93681 -0.30602,-0.60576 -0.39658,-1.50823 -0.39033,-2.02969 v -0.39032 -0.0782 -14.36421 c 0.0408,-0.51208 0.17486,-1.18033 0.39033,-1.63939 0.36535,-0.60263 0.51523,-0.80252 1.48325,-0.85867 h 17.48684 c 0.97739,0.056 1.1179,0.25604 1.48326,0.85867 0.30601,0.61211 0.39657,1.5988 0.39033,2.10783 v 0.39031 0.0782 24.66888 0.0782 0.39031 c 0.005,0.51529 -0.0844,1.50206 -0.39033,2.10783 -0.36536,0.60263 -0.50587,0.80565 -1.48326,0.85875 h -15.69131 v 3.27877 h 15.69131 0.15613 c 2.14214,0 3.71283,-1.38022 4.29364,-2.73236 0.64326,-1.38952 0.69011,-2.73541 0.7026,-3.51299 v -0.5464 -24.51279 -0.54648 c 0,-0.77759 -0.0594,-2.12965 -0.7026,-3.51299 -0.59018,-1.39273 -2.23269,-2.79164 -4.44977,-2.73228 h -17.48684 c -0.27713,-0.008 -0.60102,-0.0371 -0.85873,0 z m 33.17815,0 c -1.79974,0.25241 -3.06917,1.51375 -3.59105,2.73236 -0.63702,1.38013 -0.69323,2.7354 -0.70259,3.5129 v 0.54649 15.0668 0.62453 c 0,0.77437 0.0657,2.12652 0.70259,3.51299 0.59018,1.38022 2.24206,2.78851 4.44978,2.73228 h 21.85854 v -3.27877 h -21.85854 c -0.97426,-0.0502 -1.11791,-0.33096 -1.48326,-0.9368 -0.29665,-0.60577 -0.40282,-1.52388 -0.39033,-2.0297 v -0.39031 -0.0782 -15.30102 -0.0782 -0.0782 -0.31227 c -0.0125,-0.50277 0.0937,-1.49572 0.39033,-2.10783 0.36535,-0.60576 0.509,-0.80557 1.48326,-0.85867 h 17.48683 c 0.96802,0.0535 1.11791,0.25291 1.48326,0.85867 0.2623,0.53711 0.3716,1.33338 0.39033,1.87361 v 5.85495 0.0782 0.0782 0.15609 c 0.005,0.31853 -0.0874,0.91499 -0.31226,1.24907 -0.24032,0.30914 -0.40283,0.58082 -1.56133,0.62454 h -17.48683 v 3.35689 h 17.48683 0.15613 c 1.97352,0 3.52235,-0.99616 4.21558,-2.18587 0.71821,-1.19597 0.77442,-2.39194 0.78066,-3.04463 v -0.46836 -4.91815 -0.54648 c -0.005,-0.78063 -0.0562,-2.12965 -0.7026,-3.51299 -0.58081,-1.39273 -2.24206,-2.79164 -4.44977,-2.73228 h -17.48683 c -0.27597,-0.008 -0.60163,-0.0362 -0.85873,0 z m -385.2568,3.27876 h 16.23777 c 0.96491,0.0527 1.12416,0.24987 1.48326,0.85876 0.29665,0.60576 0.39658,1.59879 0.39033,2.10774 l -0.078,0.3904 v 0.0782 15.30102 0.0782 l 0.078,0.39031 c 0.005,0.50582 -0.0937,1.42393 -0.39033,2.0297 -0.3591,0.60576 -0.51835,0.88996 -1.48326,0.9368 h -16.23777 c -0.97114,-0.0469 -1.12103,-0.33104 -1.48325,-0.9368 -0.29978,-0.60577 -0.3997,-1.52388 -0.39033,-2.0297 v -0.39031 -0.0782 -15.30102 -0.0782 -0.3904 c -0.01,-0.50895 0.0904,-1.50198 0.39033,-2.10774 0.36222,-0.60889 0.50586,-0.80566 1.48325,-0.85876 z m 95.47499,0 h 16.31584 c 0.9649,0.0527 1.04297,0.24987 1.4052,0.85876 0.30602,0.60576 0.39657,1.59879 0.39033,2.10774 v 0.3904 0.0782 15.30102 0.0782 0.39031 c 0.005,0.50582 -0.0842,1.42393 -0.39033,2.0297 -0.36223,0.60576 -0.4403,0.88996 -1.4052,0.9368 h -16.31584 c -0.97426,-0.0469 -1.03984,-0.33104 -1.40519,-0.9368 -0.29665,-0.60577 -0.3997,-1.52388 -0.39034,-2.0297 v -0.39031 -0.0782 -15.30102 -0.0782 -0.3904 c -0.01,-0.50895 0.0937,-1.50198 0.39034,-2.10774 0.36535,-0.60889 0.43093,-0.80566 1.40519,-0.85876 z"
       id="path2"
       style="stroke-width:0.823273" /><path
       d="m 602.58085,323.37746 c -3.63789,-2.92905 -10.5327,-3.58168 -14.52032,-3.70971 -1.83924,-0.05 -3.07268,0 -3.07268,0 h -93.62014 c 0,0 -2.83849,-0.21859 -6.31087,0 -3.38183,0.21859 -7.36321,0.85248 -9.85508,2.54496 -6.33274,4.26866 -7.12901,11.24153 -7.12901,17.56802 v 80.37385 h 23.29496 v -70.56561 c 0,-10.12675 8.67472,-9.01821 8.67472,-9.01821 h 27.04214 v 79.48702 h 22.20203 v -79.48702 h 27.67291 c 7.45065,0 8.00335,6.4795 8.02834,7.93153 v 0.3029 71.34939 h 23.31369 v -79.58382 -0.5652 c -0.0343,-2.47938 -0.48401,-12.41877 -5.72069,-16.6281 m -196.97981,-3.70971 c -3.38808,0.21859 -7.36945,0.85248 -9.86757,2.54496 -6.33273,4.26866 -7.11964,11.24153 -7.11964,17.56802 v 80.37385 h 23.29184 v -70.56561 c 0,-10.12675 8.67784,-9.01821 8.67784,-9.01821 h 30.90173 v -20.90301 h -39.57957 c 0,0 -2.83849,-0.21859 -6.30463,0 m -59.36467,70.47506 c 0,10.12363 -8.6716,9.02133 -8.6716,9.02133 h -31.81355 c -7.43815,0 -8.00023,-6.48886 -8.02521,-7.94714 v -0.2904 -71.36502 h -23.30432 v 79.60256 0.5652 c 0.028,2.46065 0.48088,12.41253 5.71757,16.62498 3.63476,2.92592 10.52645,3.58169 14.51407,3.70346 1.84236,0.0592 3.07268,0 3.07268,0 h 48.51036 c 0,0 2.8416,0.22484 6.30462,0 3.38807,-0.21558 7.36633,-0.85872 9.86445,-2.54495 6.32648,-4.27803 7.129,-11.23217 7.129,-17.5649 V 319.56158 H 346.23637 Z M 230.842,420.05778 h 23.29496 V 277.11542 H 230.842 Z m -20.68131,-45.86546 c 0,0 0.21234,-7.38506 -4.39981,-10.57329 -4.2468,-2.91031 -10.35158,-2.91031 -10.35158,-2.91031 h -42.42118 c 0,0 -6.38582,0.42781 -6.38582,-6.38581 v -7.15711 c 0,0 -0.56208,-7.55994 7.55681,-7.55994 h 55.0117 v -20.04428 h -59.51769 c 0,0 -9.86132,-0.1344 -13.77712,0.79315 -5.1836,1.2272 -10.83559,3.88145 -10.83559,15.67258 v 28.44421 c 0,15.44774 14.72641,13.82709 14.72641,13.82709 h 39.5421 c 9.37107,0 8.70595,6.91978 8.70595,6.91978 v 6.8386 c 0,9.04007 -10.24542,7.60053 -10.24542,7.60053 h -52.72904 v 20.40026 h 68.3017 c 0,0 8.94326,0.30602 13.05579,-4.44352 4.11878,-4.74955 3.76279,-12.54681 3.76279,-12.54681 z"
       id="path3"
       style="stroke-width:0.823273" /></g></svg>
